<?xml version="1.0"?>
<svg version="1.1" xmlns="http://www.w3.org/2000/svg" width="330" height="200" style="border: dashed 2px #aaa"><path fill="#1698f5" d="M15,87.33642578125q0-0.4443359375,0.618896484375-0.682373046875t0.809326171875-0.238037109375l1.17431640625-0.1904296875q1.17431640625-0.1904296875,2.38037109375-0.333251953125t2.3486328125-0.269775390625q4.03076171875-0.5078125,8.0615234375-0.999755859375t8.125-0.491943359375q0.3173828125,0,0.872802734375,0.03173828125t1.11083984375,0.174560546875t0.9521484375,0.396728515625t0.396728515625,0.6982421875q0,0.3173828125-0.301513671875,0.555419921875t-0.714111328125,0.364990234375t-0.841064453125,0.15869140625t-0.682373046875,0.03173828125l-0.555419921875,0t-0.555419921875-0.126953125q-1.68212890625,0-3.316650390625,0.15869140625t-3.316650390625,0.28564453125q0.4443359375,0.5078125,0.47607421875,1.42822265625t0.0634765625,1.5869140625q0,11.2353515625,0.15869140625,22.34375t0.28564453125,22.43896484375l0,0.0634765625q-1.04736328125,0.92041015625-1.793212890625,1.17431640625t-1.507568359375,0.25390625q-0.72998046875,0-1.475830078125-0.269775390625t-1.793212890625-1.158447265625l0-0.0634765625l0.25390625-24.91455078125q0-2.4755859375-0.0634765625-5.458984375t-0.0634765625-6.046142578125t0.09521484375-5.919189453125t0.5078125-4.98291015625q-1.87255859375,0.1904296875-3.96728515625,0.5712890625q-1.80908203125,0.3173828125-3.45947265625,0.3173828125l-0.5712890625,0q-0.126953125,0-0.745849609375,0.03173828125t-1.26953125-0.03173828125t-1.17431640625-0.25390625t-0.523681640625-0.634765625z M45.077416992188,117.86865234375q0-0.634765625,0.142822265625-1.68212890625t0.333251953125-2.078857421875t0.4443359375-1.920166015625t0.60302734375-1.142578125q0.25390625-0.25390625,0.872802734375-0.5078125t1.30126953125-0.364990234375t1.26953125,0.09521484375t0.714111328125,0.841064453125q-0.4443359375,0.5712890625-0.809326171875,1.951904296875t-0.555419921875,3.062744140625q-0.15869140625,1.42822265625-0.15869140625,2.95166015625l0,0.53955078125q0.03173828125,1.77734375,0.3173828125,3.26904296875t0.872802734375,2.459716796875t1.634521484375,0.968017578125q2.2216796875,0,4.0625-2.047119140625t3.26904296875-4.998779296875t2.50732421875-6.268310546875t1.8408203125-5.792236328125q0.1904296875-0.72998046875,0.904541015625-0.98388671875t1.539306640625-0.174560546875t1.475830078125,0.396728515625t0.777587890625,0.76171875q-0.634765625,5.33203125-0.999755859375,10.6640625t-0.364990234375,10.7275390625q0,1.04736328125,0.09521484375,1.920166015625t-0.09521484375,1.49169921875t-0.841064453125,0.98388671875t-2.078857421875,0.364990234375q-0.3173828125,0-0.809326171875-0.0634765625t-1.015625-0.206298828125t-0.888671875-0.428466796875t-0.364990234375-0.66650390625q0-2.3486328125,0.174560546875-4.82421875t0.491943359375-4.79248046875q-0.85693359375,1.23779296875-1.888427734375,2.459716796875t-2.269287109375,2.205810546875t-2.666015625,1.571044921875t-3.07861328125,0.587158203125q-2.3486328125,0-3.697509765625-1.11083984375t-2.03125-2.777099609375t-0.85693359375-3.634033203125t-0.174560546875-3.80859375z M74.932666015625,111.77490234375q0-1.30126953125,0.460205078125-2.18994140625t1.951904296875-0.888671875q0.5712890625,0,1.42822265625,0.174560546875t0.98388671875,0.872802734375q0.3173828125,1.87255859375,0.34912109375,4.0625t0.22216796875,4.1259765625q0.72998046875-1.42822265625,1.87255859375-3.07861328125t2.6025390625-3.046875t3.173828125-2.31689453125t3.4912109375-0.92041015625q0.126953125,0,0.47607421875,0.09521484375t0.650634765625,0.269775390625t0.364990234375,0.396728515625t-0.34912109375,0.41259765625q-0.126953125,0.380859375-0.53955078125,0.460205078125t-0.72998046875,0.079345703125q-0.1904296875,0-0.60302734375-0.15869140625q-2.3486328125,1.23779296875-3.9990234375,3.3642578125t-2.69775390625,4.713134765625t-1.5234375,5.458984375t-0.47607421875,5.601806640625q0,1.36474609375-0.618896484375,1.650390625t-1.983642578125,0.28564453125q-0.72998046875,0-1.539306640625-0.15869140625t-1.126708984375-1.015625q-0.5712890625-1.80908203125-0.936279296875-4.15771484375t-0.555419921875-4.840087890625t-0.269775390625-4.903564453125t-0.079345703125-4.34814453125z M97.488110351563,119.55078125q0-1.74560546875,0.333251953125-3.729248046875t1.142578125-3.634033203125t2.237548828125-2.7294921875t3.64990234375-1.0791015625q1.49169921875,0,2.88818359375,0.491943359375t2.63427734375,1.348876953125q0.380859375-0.634765625,1.2060546875-0.777587890625t1.4599609375-0.142822265625q0.25390625,0,0.714111328125,0.03173828125t0.904541015625,0.1904296875t0.777587890625,0.380859375t0.396728515625,0.634765625q0.25390625,2.2216796875,0.34912109375,4.427490234375t0.28564453125,4.395751953125q0.3173828125,4.09423828125,0.98388671875,8.09326171875t0.66650390625,8.09326171875q0,1.93603515625-0.174560546875,4.189453125t-0.92041015625,4.173583984375t-2.174072265625,3.189697265625t-3.96728515625,1.26953125q-2.28515625,0-3.507080078125-0.809326171875t-2.205810546875-2.713623046875q0.0634765625-0.634765625,0.809326171875-0.841064453125t1.285400390625-0.206298828125q0.5078125,0,1.031494140625,0.09521484375t0.841064453125,0.3173828125l0.79345703125,0.5078125q1.17431640625-2.412109375,1.42822265625-5.2685546875t0.25390625-5.5224609375q0-2.2216796875-0.22216796875-4.395751953125t-0.4443359375-4.364013671875q-2.2216796875,4.03076171875-6.76025390625,4.03076171875q-2.0947265625,0-3.411865234375-0.888671875t-2.03125-2.25341796875t-0.98388671875-3.07861328125t-0.269775390625-3.427734375z M101.39191894531,119.83642578125q0,0.79345703125,0.0634765625,2.047119140625t0.333251953125,2.459716796875t0.777587890625,2.078857421875t1.42822265625,0.872802734375q1.74560546875,0,2.76123046875-1.36474609375t1.602783203125-3.253173828125t0.936279296875-3.90380859375t0.888671875-3.316650390625q-0.0634765625-0.4443359375-0.0634765625-0.872802734375l0-0.872802734375q-0.72998046875-1.36474609375-2.12646484375-2.364501953125t-2.88818359375-1.348876953125q-0.1904296875-0.03173828125-0.34912109375-0.03173828125q-0.888671875,0-1.4599609375,1.04736328125q-0.72998046875,1.26953125-1.142578125,3.031005859375t-0.587158203125,3.475341796875t-0.174560546875,2.31689453125z M123.31259765625,117.86865234375q0-0.634765625,0.142822265625-1.68212890625t0.333251953125-2.078857421875t0.4443359375-1.920166015625t0.60302734375-1.142578125q0.25390625-0.25390625,0.872802734375-0.5078125t1.30126953125-0.364990234375t1.26953125,0.09521484375t0.714111328125,0.841064453125q-0.4443359375,0.5712890625-0.809326171875,1.951904296875t-0.555419921875,3.062744140625q-0.15869140625,1.42822265625-0.15869140625,2.95166015625l0,0.53955078125q0.03173828125,1.77734375,0.3173828125,3.26904296875t0.872802734375,2.459716796875t1.634521484375,0.968017578125q2.2216796875,0,4.0625-2.047119140625t3.26904296875-4.998779296875t2.50732421875-6.268310546875t1.8408203125-5.792236328125q0.1904296875-0.72998046875,0.904541015625-0.98388671875t1.539306640625-0.174560546875t1.475830078125,0.396728515625t0.777587890625,0.76171875q-0.634765625,5.33203125-0.999755859375,10.6640625t-0.364990234375,10.7275390625q0,1.04736328125,0.09521484375,1.920166015625t-0.09521484375,1.49169921875t-0.841064453125,0.98388671875t-2.078857421875,0.364990234375q-0.3173828125,0-0.809326171875-0.0634765625t-1.015625-0.206298828125t-0.888671875-0.428466796875t-0.364990234375-0.66650390625q0-2.3486328125,0.174560546875-4.82421875t0.491943359375-4.79248046875q-0.85693359375,1.23779296875-1.888427734375,2.459716796875t-2.269287109375,2.205810546875t-2.666015625,1.571044921875t-3.07861328125,0.587158203125q-2.3486328125,0-3.697509765625-1.11083984375t-2.03125-2.777099609375t-0.85693359375-3.634033203125t-0.174560546875-3.80859375z M151.86657714844,100.5078125q0-0.4443359375,0.9521484375-0.76171875t2.158203125-0.523681640625t2.332763671875-0.301513671875t1.539306640625-0.15869140625q0-0.85693359375,0.0634765625-1.729736328125t0.34912109375-1.55517578125t0.904541015625-1.094970703125t1.729736328125-0.41259765625q0.92041015625,0,1.396484375,0.22216796875t1.015625,0.92041015625q0.126953125,0.380859375,0.126953125,0.72998046875l0,1.063232421875t-0.0634765625,1.094970703125q1.17431640625-0.126953125,2.332763671875-0.301513671875t2.332763671875-0.174560546875q0.85693359375,0,1.17431640625,0.03173828125t0.634765625,0.76171875q0.25390625,0.72998046875-0.618896484375,1.11083984375t-2.0947265625,0.5712890625t-2.427978515625,0.28564453125t-1.4599609375,0.09521484375q-0.380859375,5.458984375-0.777587890625,10.82275390625t-0.396728515625,10.88623046875q0,2.4755859375,0.15869140625,5.10986328125t0.888671875,4.98291015625q0.1904296875,0.72998046875,0.634765625,1.36474609375t0.4443359375,1.36474609375q0,0.4443359375-0.34912109375,0.6982421875t-0.841064453125,0.428466796875t-0.98388671875,0.206298828125t-0.809326171875,0.03173828125q-1.99951171875,0-3.046875-1.49169921875t-1.507568359375-3.570556640625t-0.491943359375-4.268798828125t-0.03173828125-3.5546875q0-2.79296875,0.111083984375-5.712890625t0.269775390625-5.7763671875t0.4443359375-5.5859375t0.66650390625-5.078125q-1.11083984375,0.126953125-2.174072265625,0.28564453125t-2.174072265625,0.15869140625q-0.25390625,0-0.682373046875-0.03173828125t-0.809326171875-0.15869140625t-0.650634765625-0.34912109375t-0.269775390625-0.634765625z M188.50334472656,121.8994140625q0-2.5390625,1.11083984375-4.808349609375t2.872314453125-4.189453125t3.8720703125-3.507080078125t4.110107421875-2.88818359375q-0.634765625-1.80908203125-1.126708984375-3.443603515625t-0.491943359375-3.634033203125q0-2.6025390625,0.841064453125-4.713134765625t2.38037109375-3.6181640625t3.681640625-2.3486328125t4.744873046875-0.841064453125q1.36474609375,0,2.79296875,0.428466796875t2.6025390625,1.26953125t1.888427734375,2.047119140625t0.714111328125,2.76123046875q0,2.3486328125-1.26953125,4.28466796875t-3.126220703125,3.570556640625t-3.96728515625,2.967529296875t-3.792724609375,2.44384765625q0.4443359375,0.92041015625,0.904541015625,1.824951171875t0.968017578125,1.793212890625q1.23779296875-0.5712890625,3.062744140625-1.507568359375t3.729248046875-2.047119140625t3.602294921875-2.158203125t2.808837890625-1.80908203125q0.5712890625-0.4443359375,1.158447265625-1.031494140625t1.17431640625-1.11083984375t1.221923828125-0.92041015625t1.42822265625-0.396728515625q0.85693359375,0,1.666259765625,0.15869140625t0.999755859375,1.0791015625q0.1904296875,0.98388671875-1.30126953125,2.18994140625t-3.538818359375,2.301025390625t-4.03076171875,1.951904296875t-2.681884765625,1.17431640625q3.96728515625,0.4443359375,5.712890625,3.01513671875t1.74560546875,6.2841796875q0,2.7294921875-1.063232421875,4.967041015625t-2.967529296875,4.110107421875q0.3173828125,0.3173828125,1.5234375,1.55517578125t2.57080078125,2.681884765625t2.44384765625,2.6025390625t1.142578125,1.285400390625q-0.126953125,0.634765625-0.904541015625,0.809326171875t-1.317138671875,0.174560546875q-0.92041015625,0-2.110595703125-0.841064453125t-2.427978515625-2.015380859375t-2.301025390625-2.3486328125t-1.729736328125-1.80908203125q-2.79296875,1.49169921875-5.919189453125,2.110595703125t-6.236572265625,0.618896484375q-2.3486328125,0-5.33203125-0.523681640625t-5.61767578125-1.729736328125t-4.427490234375-3.221435546875t-1.793212890625-4.998779296875z M195.00969238281,121.708984375q0,2.0947265625,1.04736328125,3.5546875t2.63427734375,2.396240234375t3.507080078125,1.396484375t3.665771484375,0.460205078125q2.28515625,0,4.72900390625-0.682373046875t4.189453125-2.174072265625q-1.87255859375-1.99951171875-3.729248046875-4.0625t-3.570556640625-4.189453125q-0.380859375,0.634765625-0.66650390625,1.348876953125t-0.28564453125,1.507568359375q0,0.98388671875,0.5712890625,1.61865234375q0.380859375,0.25390625,1.2060546875,0.682373046875t0.8251953125,0.936279296875q0,0.4443359375-0.364990234375,0.745849609375t-0.85693359375,0.428466796875t-0.968017578125,0.1904296875t-0.8251953125,0.0634765625q-0.98388671875,0-2.047119140625-0.28564453125t-1.904296875-0.872802734375t-1.396484375-1.4599609375t-0.555419921875-2.047119140625q0-1.04736328125,0.396728515625-2.0947265625t1.015625-1.951904296875t1.36474609375-1.7138671875t1.507568359375-1.475830078125q-0.5712890625-0.92041015625-1.126708984375-1.824951171875t-0.999755859375-1.793212890625q-1.30126953125,0.92041015625-2.6025390625,2.174072265625t-2.3486328125,2.713623046875t-1.729736328125,3.126220703125t-0.682373046875,3.284912109375z M204.18205566406,99.619140625q0,2.158203125,0.5712890625,4.09423828125q1.11083984375-0.3173828125,2.38037109375-1.4599609375t2.38037109375-2.666015625t1.951904296875-3.189697265625t1.094970703125-3.031005859375t-0.22216796875-2.237548828125t-1.9677734375-0.809326171875q-1.68212890625,0.0634765625-2.88818359375,0.936279296875t-1.93603515625,2.205810546875t-1.04736328125,2.967529296875t-0.3173828125,3.189697265625z M210.49797363281,114.94873046875q1.55517578125,2.28515625,3.284912109375,4.443359375t3.602294921875,4.2529296875q0.72998046875-1.23779296875,1.015625-2.491455078125t0.28564453125-2.681884765625q0-0.634765625-0.09521484375-1.7138671875t-0.428466796875-2.0947265625t-0.888671875-1.793212890625t-1.380615234375-0.904541015625l-0.0634765625-0.0634765625q-0.25390625,0-1.04736328125,0.380859375t-1.634521484375,0.904541015625t-1.61865234375,1.04736328125t-1.031494140625,0.714111328125z M247.99167480469,90.95458984375q0-0.380859375,0.364990234375-0.5712890625t0.79345703125-0.28564453125t0.777587890625-0.09521484375l0.34912109375,0q1.11083984375,0,1.602783203125,0.5078125t1.190185546875,1.30126953125q4.7607421875,6.88720703125,8.72802734375,14.171142578125t7.64892578125,14.742431640625q0.3173828125-8.6962890625,0.650634765625-17.503662109375t0.841064453125-17.471923828125q0-0.380859375,0.364990234375-0.634765625t0.8251953125-0.380859375t0.936279296875-0.15869140625t0.72998046875-0.03173828125q0.380859375,0,0.841064453125,0.03173828125t0.92041015625,0.1904296875t0.76171875,0.380859375t0.301513671875,0.60302734375q0.126953125,1.36474609375,0.142822265625,2.745361328125t0.015869140625,2.745361328125q0,10.2197265625-0.4443359375,20.02685546875t-0.4443359375,19.8046875l0,2.28515625q0,0.126953125-0.126953125,0.380859375q0.0634765625,0.25390625,0.1904296875,0.555419921875t0.126953125,0.428466796875q0,0.5078125-0.523681640625,0.76171875t-1.142578125,0.396728515625t-1.094970703125,0.142822265625t-0.34912109375,0q-1.61865234375,0-2.7294921875-0.888671875t-1.11083984375-2.12646484375q-2.3486328125-5.2685546875-4.681396484375-10.457763671875t-4.871826171875-10.330810546875q-1.61865234375-3.2373046875-3.253173828125-6.490478515625t-3.507080078125-6.300048828125q0.0634765625,0.0634765625,0.0634765625,0.1904296875q0.3173828125,3.173828125,0.682373046875,6.331787109375t0.555419921875,6.331787109375q0.126953125,2.7294921875,0.28564453125,5.5224609375t0.5078125,5.5224609375q0,1.04736328125-0.650634765625,1.3330078125t-1.507568359375,0.28564453125q-0.72998046875,0-1.380615234375-0.1904296875t-0.777587890625-0.9521484375q0-2.919921875-0.22216796875-6.204833984375t-0.41259765625-6.617431640625q-0.3173828125-4.41162109375-0.841064453125-8.966064453125t-0.523681640625-8.902587890625q0-0.1904296875,0.03173828125-0.396728515625t0.03173828125-0.460205078125q-0.1904296875-0.3173828125-0.428466796875-0.66650390625t-0.238037109375-0.634765625z M283.24243164062,119.89990234375q0-2.919921875,0.682373046875-5.728759765625t1.158447265625-5.601806640625q0.126953125-0.72998046875,0.999755859375-0.904541015625t1.475830078125-0.174560546875q1.04736328125,0,1.68212890625,0.3173828125q0.25390625,0.126953125,0.47607421875,0.28564453125t0.22216796875,0.41259765625q0,2.7294921875-0.650634765625,5.33203125t-0.650634765625,5.5224609375q0,0.98388671875,0.142822265625,1.856689453125t0.269775390625,1.729736328125l0.1904296875,0.92041015625q0,0.25390625,0.03173828125,0.4443359375t0.09521484375,0.4443359375q0,0.5712890625-0.809326171875,0.777587890625t-1.412353515625,0.206298828125q-0.92041015625,0-1.697998046875-0.364990234375t-1.221923828125-1.253662109375l-0.4443359375-0.92041015625q-0.380859375-0.72998046875-0.380859375-1.634521484375t-0.15869140625-1.666259765625z M285.27368164062,100.79345703125l0-0.60302734375q0-1.49169921875,0.745849609375-2.666015625t2.237548828125-1.17431640625q0.1904296875,0,0.364990234375,0.03173828125t0.364990234375,0.03173828125q0.380859375,0.0634765625,0.999755859375,0.301513671875t0.618896484375,0.745849609375l0,0.0634765625q-0.126953125,0.25390625-0.15869140625,0.523681640625t-0.15869140625,0.460205078125l0.0634765625-0.0634765625q-0.380859375,0.98388671875-0.618896484375,1.5869140625t-0.523681640625,0.968017578125t-0.714111328125,0.523681640625t-1.221923828125,0.15869140625q-0.126953125,0-0.4443359375-0.03173828125t-0.682373046875-0.126953125t-0.618896484375-0.25390625t-0.25390625-0.47607421875z M297.10158691406,131.9287109375q0-0.92041015625,0.079345703125-1.93603515625t0.142822265625-1.904296875l0.1904296875-4.7607421875q0.3173828125-5.712890625,0.777587890625-11.2353515625t0.777587890625-11.171875q0.1904296875-3.1103515625,0.28564453125-6.109619140625t0.28564453125-6.109619140625q-0.126953125-0.25390625-0.126953125-0.34912109375q0-0.4443359375,0.333251953125-0.6982421875t0.777587890625-0.428466796875t0.936279296875-0.238037109375t0.745849609375-0.0634765625l0.72998046875,0q0.98388671875,0.126953125,1.42822265625,0.618896484375t0.5712890625,1.17431640625t0.0634765625,1.4599609375t-0.0634765625,1.444091796875q0,4.60205078125-0.22216796875,9.378662109375t-0.5078125,9.5849609375t-0.523681640625,9.61669921875t-0.238037109375,9.505615234375l0,2.2216796875q0,1.49169921875-0.841064453125,1.9677734375t-2.332763671875,0.47607421875q-1.30126953125,0-2.28515625-0.5712890625t-0.98388671875-1.87255859375z"/><path fill="#" d=""/></svg>
